<svg xmlns="http://www.w3.org/2000/svg" viewBox="0 0 15 15" preserveAspectRatio="xMidYMid slice"><g id="Page-1" stroke="none" stroke-width="1" fill="none" fill-rule="evenodd"><g id="Element-States" transform="translate(-698 -241)" fill="currentColor" fill-rule="nonzero"><path d="M705.5 241a7.5 7.5 0 107.5 7.5 7.51 7.51 0 00-7.5-7.5zm3.39 5.71l-3.745 4.164a.333.333 0 01-.202.117.374.374 0 01-.071.009.15.15 0 01-.06-.009.334.334 0 01-.203-.117l-1.5-1.664a.44.44 0 01-.109-.294c0-.11.04-.217.11-.295a.351.351 0 01.532 0l1.237 1.377 3.479-3.876a.351.351 0 01.532 0 .44.44 0 01.11.294.44.44 0 01-.11.294z" id="Resolved"/></g></g></svg>