<svg xmlns="http://www.w3.org/2000/svg" viewBox="0 0 12 12" preserveAspectRatio="xMidYMid slice"><g id="Page-1" stroke="none" stroke-width="1" fill="none" fill-rule="evenodd"><g id="Shape-4" fill="currentColor" fill-rule="nonzero"><path d="M6 0a6 6 0 100 12A6 6 0 006 0zm-.004 5.856a.397.397 0 010 .107.2.2 0 010 .06.453.453 0 01-.07.137L4.578 7.873a.306.306 0 01-.24.127.306.306 0 01-.238-.127.493.493 0 01-.1-.304c0-.114.036-.224.1-.304l1.223-1.59V2.429c0-.236.15-.428.336-.428.187 0 .337.192.337.428v3.428z" id="Shape"/></g></g></svg>